<svg width="220" height="90" viewBox="0 0 220 90" fill="none" xmlns="http://www.w3.org/2000/svg">
<path d="M111.132 69.9775H112.84V77.4936C112.84 78.7919 112.703 79.8509 112.396 80.6026C112.088 81.3542 111.576 82.0033 110.79 82.4816C110.004 82.9599 109.013 83.199 107.749 83.199C106.519 83.199 105.529 82.994 104.777 82.5841C103.991 82.1741 103.444 81.5591 103.103 80.7734C102.761 79.9876 102.59 78.8944 102.59 77.5278V70.0117H104.299V77.4936C104.299 78.621 104.401 79.441 104.606 79.9876C104.811 80.5342 105.187 80.9442 105.699 81.2175C106.212 81.4908 106.827 81.6616 107.578 81.6616C108.843 81.6616 109.731 81.3883 110.278 80.8075C110.824 80.2268 111.097 79.1335 111.097 77.4936L111.132 69.9775ZM139.181 82.9599V69.9775H147.928V71.5149H140.89V75.5463H146.971V77.0837H140.89V82.994L139.181 82.9599ZM173.483 82.9599V69.9775H178.369C179.36 69.9775 180.145 70.1142 180.76 70.3533C181.375 70.6267 181.819 71.0366 182.161 71.5832C182.503 72.1299 182.674 72.7107 182.674 73.2915C182.674 73.8381 182.537 74.3847 182.229 74.863C181.922 75.3413 181.478 75.7513 180.863 76.0587C181.649 76.2979 182.264 76.6737 182.674 77.2203C183.084 77.7669 183.323 78.4161 183.323 79.2018C183.323 79.8168 183.186 80.3634 182.947 80.91C182.708 81.4567 182.366 81.8325 181.99 82.1058C181.614 82.3791 181.136 82.6182 180.555 82.7549C179.975 82.8915 179.291 82.9599 178.471 82.9599H173.483ZM175.191 75.4438H177.993C178.745 75.4438 179.291 75.3755 179.633 75.3071C180.077 75.1705 180.385 74.9655 180.624 74.658C180.829 74.3505 180.965 73.9747 180.965 73.5306C180.965 73.0865 180.863 72.7107 180.658 72.4032C180.453 72.0615 180.145 71.8566 179.77 71.7199C179.394 71.5832 178.71 71.5491 177.788 71.5491H175.191V75.4438ZM175.191 81.4225H178.437C178.984 81.4225 179.394 81.3883 179.599 81.3542C180.009 81.2858 180.316 81.1492 180.59 81.0125C180.863 80.8417 181.068 80.6026 181.239 80.2951C181.409 79.9876 181.512 79.6118 181.512 79.2018C181.512 78.7235 181.375 78.3136 181.136 77.9378C180.897 77.5961 180.555 77.3228 180.111 77.1862C179.667 77.0495 179.052 76.9812 178.198 76.9812H175.191V81.4225ZM207.58 82.9599L212.568 69.9775H214.413L219.743 82.9599H217.795L216.292 79.031H210.86L209.425 82.9599H207.58ZM211.338 77.6303H215.745L214.379 74.0431C213.969 72.9498 213.661 72.0615 213.456 71.3441C213.286 72.164 213.046 73.0181 212.739 73.8381L211.338 77.6303Z" fill="white"/>
<path d="M107.818 59.6244H102.659V30.584H107.818V59.6244ZM108.501 22.0769C108.501 23.1019 108.193 23.9218 107.613 24.5368C107.032 25.1518 106.212 25.4934 105.221 25.4934C104.264 25.4934 103.513 25.1859 102.898 24.5368C102.283 23.8877 101.975 23.0677 101.975 22.0769C101.975 21.0861 102.283 20.2662 102.898 19.617C103.513 18.9679 104.299 18.6604 105.221 18.6604C106.212 18.6604 106.998 18.9679 107.613 19.617C108.193 20.2662 108.501 21.0861 108.501 22.0769ZM115.402 59.6244V38.3395C115.402 36.2896 115.334 33.6931 115.163 30.584H119.707L119.946 34.718H120.083C121.894 31.609 124.593 30.0374 128.248 30.0374C130.811 30.0374 132.895 30.994 134.501 32.9414C136.106 34.8547 136.892 37.6562 136.892 41.2777V59.6244H131.733V41.9952C131.733 36.9046 129.957 34.3764 126.438 34.3764C124.764 34.3764 123.397 35.0597 122.27 36.4604C121.142 37.827 120.561 39.6378 120.561 41.8243V59.6244H115.402ZM150.319 59.6244H145.16V34.4789H141.334V30.584H145.16V29.0124C145.16 26.2792 145.57 24.0585 146.39 22.2478C147.21 20.4712 148.338 19.1387 149.807 18.2846C151.276 17.4305 152.882 16.9863 154.658 16.9863C156.23 16.9863 157.596 17.2596 158.792 17.7721L158.075 21.7353C157.221 21.3595 156.23 21.1886 155.136 21.1886C151.925 21.1886 150.353 23.751 150.353 28.8758V30.5499H156.469V34.4447H150.353V59.6244H150.319ZM181.922 44.9334C181.922 48.1107 181.409 50.8439 180.385 53.133C179.36 55.4221 177.89 57.1645 176.011 58.3603C174.132 59.556 172.082 60.171 169.862 60.171C166.343 60.171 163.507 58.8386 161.32 56.1737C159.134 53.5088 158.04 49.8531 158.04 45.2409C158.04 40.3894 159.202 36.6313 161.525 34.0005C163.849 31.3698 166.718 30.0716 170.237 30.0716C173.756 30.0716 176.592 31.404 178.71 34.0689C180.863 36.7338 181.922 40.3553 181.922 44.9334ZM163.199 45.1042C163.199 48.2474 163.814 50.9123 165.044 53.0305C166.274 55.1487 167.88 56.2079 169.93 56.2079C171.98 56.2079 173.586 55.1146 174.816 52.9622C176.046 50.8098 176.661 48.1791 176.661 45.0359C176.661 41.9268 176.08 39.3303 174.918 37.1779C173.756 35.0255 172.117 34.0005 169.998 34.0005C167.846 34.0005 166.206 35.0597 165.01 37.1437C163.814 39.262 163.199 41.9268 163.199 45.1042Z" fill="white"/>
<path d="M187.491 71.3432L186.876 67.2776C188.448 67.1067 189.746 66.6626 190.737 65.9793C191.728 65.296 192.445 64.2027 192.821 62.7336C193.197 61.2645 193.402 58.7022 193.402 55.0807V29.9353H198.561V56.7548C198.561 61.162 198.014 64.3052 196.921 66.1843C195.827 68.0634 194.392 69.3958 192.616 70.1474C190.908 70.8991 189.199 71.309 187.491 71.3432ZM199.278 21.4282C199.278 22.419 198.971 23.239 198.356 23.8881C197.741 24.5372 196.955 24.8447 195.964 24.8447C195.007 24.8447 194.256 24.5031 193.641 23.8539C193.026 23.2048 192.718 22.3848 192.718 21.4282C192.718 20.4374 193.026 19.6175 193.641 18.9683C194.256 18.3192 195.042 18.0117 195.998 18.0117C196.955 18.0117 197.741 18.3192 198.321 18.9683C198.902 19.6175 199.278 20.4374 199.278 21.4282ZM205.974 58.9755V38.2715C205.974 35.9483 205.906 33.1468 205.735 29.9353H210.279L210.518 35.0259H210.689C211.304 33.2835 212.227 31.9169 213.525 30.8919C214.823 29.867 216.224 29.3886 217.693 29.3886L218.957 29.457V34.5817C218.752 34.5134 218.274 34.4451 217.591 34.4451C215.814 34.4451 214.277 35.1967 213.012 36.6658C211.748 38.1349 211.099 40.3556 211.099 43.2596V58.9755H205.974Z" fill="white"/>
<rect x="33.6108" y="0.76123" width="21.1824" height="88.8295" rx="10.5912" fill="white"/>
<path d="M89.3342 23.1371C88.7876 -7.88468 1.29051 -8.08967 0.026398 24.8112C-0.793567 45.7202 17.7581 59.5229 18.134 77.9719C18.3048 86.2057 31.5267 90.1005 44.8853 89.998C45.022 89.998 45.1586 89.998 45.3295 89.998C47.2085 89.998 49.0535 89.8955 50.8642 89.6905C62.6854 88.5289 73.0374 84.19 72.5591 76.9128C70.8509 52.519 87.5577 41.7229 89.3342 23.1371ZM53.4949 82.1059C53.4949 86.0007 50.1126 89.1781 45.9786 89.1781H42.2204C38.0864 89.1781 34.7041 86.0007 34.7041 82.1059V33.4891C34.7041 29.5943 38.0864 26.417 42.2204 26.417H45.9786C50.1126 26.417 53.4949 29.5943 53.4949 33.4891V82.1059ZM44.0995 23.6496C38.3256 23.6496 33.645 18.7299 33.645 12.6826C33.645 6.63545 38.3256 1.71569 44.0995 1.71569C49.8734 1.71569 54.5541 6.63545 54.5541 12.6826C54.5541 18.7299 49.8734 23.6496 44.0995 23.6496Z" fill="#7CB124"/>
</svg>
