<svg width="220" height="90" viewBox="0 0 220 90" fill="none" xmlns="http://www.w3.org/2000/svg">
<path d="M111.131 69.9775H112.839V77.4938C112.839 78.7921 112.702 79.8512 112.395 80.6028C112.087 81.3545 111.575 82.0036 110.789 82.4819C110.003 82.9602 109.012 83.1994 107.748 83.1994C106.518 83.1994 105.528 82.9944 104.776 82.5844C103.99 82.1744 103.443 81.5595 103.102 80.7737C102.76 79.9879 102.589 78.8946 102.589 77.528V70.0117H104.298V77.4938C104.298 78.6213 104.4 79.4412 104.605 79.9879C104.81 80.5345 105.186 80.9445 105.698 81.2178C106.211 81.4911 106.826 81.662 107.577 81.662C108.842 81.662 109.73 81.3886 110.276 80.8078C110.823 80.227 111.096 79.1338 111.096 77.4938L111.131 69.9775ZM139.18 82.9602V69.9775H147.926V71.515H140.888V75.5464H146.97V77.0839H140.888V82.9944L139.18 82.9602ZM173.482 82.9602V69.9775H178.367C179.358 69.9775 180.144 70.1142 180.759 70.3534C181.374 70.6267 181.818 71.0367 182.16 71.5833C182.501 72.1299 182.672 72.7107 182.672 73.2915C182.672 73.8382 182.535 74.3848 182.228 74.8631C181.92 75.3414 181.476 75.7514 180.861 76.0589C181.647 76.2981 182.262 76.6739 182.672 77.2205C183.082 77.7672 183.321 78.4163 183.321 79.2021C183.321 79.8171 183.185 80.3637 182.945 80.9103C182.706 81.457 182.365 81.8328 181.989 82.1061C181.613 82.3794 181.135 82.6186 180.554 82.7552C179.973 82.8919 179.29 82.9602 178.47 82.9602H173.482ZM175.19 75.4439H177.991C178.743 75.4439 179.29 75.3756 179.631 75.3073C180.076 75.1706 180.383 74.9656 180.622 74.6581C180.827 74.3507 180.964 73.9748 180.964 73.5307C180.964 73.0866 180.861 72.7107 180.656 72.4033C180.451 72.0616 180.144 71.8566 179.768 71.72C179.392 71.5833 178.709 71.5491 177.786 71.5491H175.19V75.4439ZM175.19 81.4228H178.436C178.982 81.4228 179.392 81.3886 179.597 81.3545C180.007 81.2861 180.315 81.1495 180.588 81.0128C180.861 80.842 181.066 80.6028 181.237 80.2954C181.408 79.9879 181.51 79.6121 181.51 79.2021C181.51 78.7238 181.374 78.3138 181.135 77.938C180.896 77.5963 180.554 77.323 180.11 77.1863C179.666 77.0497 179.051 76.9814 178.196 76.9814H175.19V81.4228V81.4228ZM207.578 82.9602L212.566 69.9775H214.411L219.741 82.9602H217.794L216.29 79.0313H210.858L209.423 82.9602H207.578ZM211.337 77.6305H215.744L214.377 74.0432C213.967 72.9499 213.66 72.0616 213.455 71.3441C213.284 72.1641 213.045 73.0182 212.737 73.8382L211.337 77.6305Z" fill="white"/>
<path d="M107.817 59.6252H102.658V30.585H107.817V59.6252ZM108.501 22.0779C108.501 23.1028 108.193 23.9228 107.612 24.5378C107.032 25.1527 106.212 25.4944 105.221 25.4944C104.264 25.4944 103.513 25.1869 102.898 24.5378C102.283 23.8886 101.975 23.0687 101.975 22.0779C101.975 21.0871 102.283 20.2671 102.898 19.618C103.513 18.9689 104.298 18.6614 105.221 18.6614C106.212 18.6614 106.997 18.9689 107.612 19.618C108.193 20.2671 108.501 21.0871 108.501 22.0779ZM115.402 59.6252V38.3404C115.402 36.2905 115.334 33.694 115.163 30.585H119.707L119.946 34.7189H120.083C121.893 31.6099 124.592 30.0383 128.248 30.0383C130.81 30.0383 132.894 30.995 134.5 32.9424C136.106 34.8556 136.892 37.6571 136.892 41.2786V59.6252H131.733V41.9961C131.733 36.9055 129.956 34.3773 126.437 34.3773C124.763 34.3773 123.397 35.0606 122.269 36.4614C121.142 37.8279 120.561 39.6387 120.561 41.8253V59.6252H115.402ZM150.319 59.6252H145.16V34.4798H141.333V30.585H145.16V29.0134C145.16 26.2802 145.57 24.0595 146.39 22.2487C147.21 20.4721 148.337 19.1397 149.806 18.2856C151.275 17.4315 152.881 16.9873 154.658 16.9873C156.229 16.9873 157.596 17.2606 158.791 17.7731L158.074 21.7362C157.22 21.3604 156.229 21.1896 155.136 21.1896C151.924 21.1896 150.353 23.752 150.353 28.8767V30.5508H156.468V34.4456H150.353V59.6252H150.319ZM181.921 44.9343C181.921 48.1116 181.409 50.8448 180.384 53.1339C179.359 55.4229 177.89 57.1653 176.011 58.3611C174.132 59.5569 172.082 60.1719 169.861 60.1719C166.342 60.1719 163.506 58.8394 161.32 56.1745C159.133 53.5097 158.04 49.854 158.04 45.2418C158.04 40.3903 159.201 36.6322 161.525 34.0015C163.848 31.3708 166.718 30.0725 170.237 30.0725C173.756 30.0725 176.591 31.4049 178.71 34.0698C180.862 36.7347 181.921 40.3562 181.921 44.9343ZM163.199 45.1051C163.199 48.2483 163.814 50.9131 165.044 53.0314C166.274 55.1496 167.879 56.2087 169.929 56.2087C171.979 56.2087 173.585 55.1154 174.815 52.963C176.045 50.8106 176.66 48.1799 176.66 45.0368C176.66 41.9278 176.079 39.3312 174.917 37.1788C173.756 35.0264 172.116 34.0015 169.998 34.0015C167.845 34.0015 166.205 35.0606 165.01 37.1446C163.814 39.2629 163.199 41.9277 163.199 45.1051Z" fill="white"/>
<path d="M187.49 71.3442L186.875 67.2786C188.446 67.1078 189.745 66.6636 190.735 65.9803C191.726 65.297 192.444 64.2038 192.819 62.7347C193.195 61.2656 193.4 58.7032 193.4 55.0817V29.9363H198.559V56.7558C198.559 61.1631 198.013 64.3063 196.919 66.1853C195.826 68.0644 194.391 69.3968 192.614 70.1485C190.906 70.9001 189.198 71.3101 187.49 71.3442ZM199.277 21.4292C199.277 22.42 198.969 23.2399 198.354 23.8891C197.739 24.5382 196.953 24.8457 195.963 24.8457C195.006 24.8457 194.254 24.504 193.639 23.8549C193.024 23.2058 192.717 22.3858 192.717 21.4292C192.717 20.4384 193.024 19.6185 193.639 18.9693C194.254 18.3202 195.04 18.0127 195.997 18.0127C196.953 18.0127 197.739 18.3202 198.32 18.9693C198.901 19.6185 199.277 20.4384 199.277 21.4292ZM205.973 58.9765V38.2725C205.973 35.9493 205.905 33.1478 205.734 29.9363H210.278L210.517 35.0269H210.688C211.303 33.2844 212.225 31.9178 213.523 30.8929C214.822 29.8679 216.222 29.3896 217.692 29.3896L218.956 29.458V34.5827C218.751 34.5144 218.272 34.4461 217.589 34.4461C215.813 34.4461 214.275 35.1977 213.011 36.6668C211.747 38.1359 211.098 40.3566 211.098 43.2606V58.9765H205.973Z" fill="white"/>
<rect x="33.6106" y="0.759277" width="21.1823" height="88.829" rx="10.5911" fill="white"/>
<path d="M89.3337 23.1371C88.787 -7.88468 1.2905 -8.08967 0.0263978 24.8112C-0.793562 45.7202 17.758 59.5229 18.1338 77.9719C18.3047 86.2057 31.5265 90.1005 44.885 89.998C45.0217 89.998 45.1584 89.998 45.3292 89.998C47.2083 89.998 49.0532 89.8955 50.8639 89.6905C62.685 88.5289 73.037 84.19 72.5587 76.9128C70.8504 52.519 87.5571 41.7229 89.3337 23.1371ZM53.4946 82.1059C53.4946 86.0007 50.1123 89.1781 45.9783 89.1781H42.2202C38.0862 89.1781 34.7039 86.0007 34.7039 82.1059V33.4891C34.7039 29.5943 38.0862 26.417 42.2202 26.417H45.9783C50.1123 26.417 53.4946 29.5943 53.4946 33.4891V82.1059ZM44.0992 23.6496C38.3254 23.6496 33.6447 18.7299 33.6447 12.6826C33.6447 6.63545 38.3254 1.71569 44.0992 1.71569C49.8731 1.71569 54.5537 6.63545 54.5537 12.6826C54.5537 18.7299 49.8731 23.6496 44.0992 23.6496Z" fill="#7CB124"/>
</svg>
